<?xml version="1.0" encoding="utf-8"?>
<!-- Generator: Adobe Illustrator 24.1.2, SVG Export Plug-In . SVG Version: 6.00 Build 0)  -->
<svg version="1.1" xmlns="http://www.w3.org/2000/svg" xmlns:xlink="http://www.w3.org/1999/xlink" x="0px" y="0px"
	 viewBox="0 0 750 500" style="enable-background:new 0 0 750 500;" xml:space="preserve">
<style type="text/css">
	.st0{fill:#212529;}
	.st1{fill:#6C757D;}
	.st2{fill:#F8E8D8;}
	.st3{fill:#0D6EFD;}
	.st4{fill:#FBC0A4;}
	.st5{fill:#F69D7D;}
	.st6{fill:#403433;}
	.st7{fill:#F9B092;}
</style>
<g id="canela_1_">
	<polygon class="st0" points="220.04,396.44 219.91,402.47 221.97,406.58 230.21,405.04 231.87,400.7 232.24,393.76 	"/>
</g>
<g id="pe">
	<path class="st0" d="M251.32,409.33c-2.61-1.3-10.88-4.08-16.73-8.38c-0.65-0.48-1.47-0.7-2.25-0.64c0,0-0.44,0.03-0.44,0.03
		c0,0-0.64,3.18-4.83,3.98c-2.82,0.53-7.15-1.84-7.15-1.84l-0.48,8.53l32.8,2.75c0.66-0.24,0.85-0.82,0.85-0.82
		S254.65,410.99,251.32,409.33z"/>
</g>
<g id="canela">
	<path class="st1" d="M218.89,335.44l-0.03,63.73c0,0,12.2,2.67,20.89,0.66l2.45-64.14L218.89,335.44z"/>
</g>
<g id="bundainteira">
	<path class="st1" d="M243.89,267.58h-8.75h-0.06c-0.03,0-0.05,0-0.08,0h-18.09c-0.01,0-0.02,0-0.04,0c-0.01,0-0.02,0-0.04,0h-8.69
		c-0.06,0.02-0.11,0.03-0.17,0.05c-1.1,2.22-2.46,5.91-2.02,10.45c0.24,2.44,0.65,6.93,4.76,10.65c2.16,1.96,4.53,3.02,6.15,3.6
		h18.26v-0.01c0.33,0,0.67-0.02,1-0.08c4.43-0.73,7.69-6.04,7.72-12.21h0.04V267.58z"/>
</g>
<g id="ombro2">
	<ellipse class="st2" cx="226.78" cy="218.59" rx="12.05" ry="9.32"/>
</g>
<g id="camiseta">
	<path class="st3" d="M209,224.62c-2.64,22.65-2.64,49.39-2.64,49.39s21.65-0.36,37.8-4.1l-0.31-19.82
		c1.29-10.89,2.58-21.78,3.87-32.67c-1.13-2.96-2.25-5.92-3.38-8.87c-3.57-4.69-9.85-7.54-16.45-7.4
		c-7.8,0.18-14.82,4.52-17.33,10.83C210.05,216.2,209.53,220.41,209,224.62z"/>
</g>
<g id="pescoco1">
	<g id="XMLID_371_">
		<g id="XMLID_372_">
			<g>
				<path class="st4" d="M223.03,203.38l-1.54-19.15l11.41,7.43l-0.11,0.7l-0.32,9.63c-0.09,2.75,0,5.54-2.27,6l0,0
					C227.49,208.55,223.28,206.55,223.03,203.38z"/>
			</g>
		</g>
	</g>
</g>
<g id="pescoco2">
	<g id="XMLID_1_">
		<g id="XMLID_2_">
			<g>
				<path class="st5" d="M232.59,198.34l0.2-5.98l0.11-0.7l-11.41-7.43l0.73,9.03C224.25,197.18,228.28,198.35,232.59,198.34z"/>
			</g>
		</g>
	</g>
</g>
<g id="cabeca">
	<g>
		<path class="st4" d="M243.28,176.31c-0.06-4.56,0.2-11.12-1.5-15.9c0,0,0-0.01,0-0.01c0,0,0-0.01-0.01-0.01
			c-0.75-2.1-1.87-3.84-3.57-4.92c-1.86-1.44-4.44-2.37-8.31-2.71c-8.14-0.7-13.44,2.59-16.98,8.31c-2.64,4.26-1.51,9.86-0.98,11.88
			c-1.51,0.15-3.6,1.13-3.12,5.58c0.73,6.8,5.29,6.93,6.64,7.23c0,0,2.51,12.11,16.35,10.95
			C245.65,195.54,243.38,183.98,243.28,176.31z"/>
	</g>
</g>
<g id="cabelo">
	<g>
		<path class="st6" d="M242.09,160.37c3.45-3.61,5.49-8.65,4.26-14.49c-1.87,1.03-3.64,1.87-5.51,2.9c1.96-2.16,2.39-4.11,2.25-7.17
			c0,0-23.22,6.07-28.15,10.66c-1.45,1.35-2.28,2.62-2.72,3.98l-3.53-5.28c0,0-2.11,6.39,2.01,8.58c-0.88,0.74-1.71,1.96-2.13,3.98
			c-1.14,5.44,2.18,9.82,2.18,9.82s1.24-1.08,2.94-0.35c1.5,0.64,3.17,3.89,3.08,7.1l1.37-0.22l-0.18-6.76c0,0,1.82-1.64,3.39-7.27
			c2.46,1.49,5.4,2.19,7.71,1.76l-4.29-5.07c3.88,3.42,6.95,4.73,11.74,5.01c4.78,0.28,9.87-2.24,12.3-7.27
			C246.76,160.4,244.15,160.23,242.09,160.37z"/>
	</g>
</g>
<g id="nariz">
	<g>
		<g>
			<path class="st5" d="M243.89,181.13c0.23-0.29,0.01-0.64-0.22-0.96c-0.27-0.31-0.6-0.63-1.11-0.71c-0.25-0.02-0.53,0.07-0.69,0.3
				c-0.16,0.22-0.17,0.57,0.09,0.89c0.26,0.32,0.71,0.54,1.1,0.61C243.46,181.33,243.76,181.27,243.89,181.13z"/>
		</g>
	</g>
</g>
<g id="sobramcelha">
	<g>
		<path class="st6" d="M240.48,169.64l-0.01-0.03c-1.02-0.66-4.2-0.17-6.35,1.31c-0.04,0.75,0.5,1.39,1.07,1.58
			c0.56,0.2,1.16,0.06,1.74-0.08c1.01-0.25,1.93-0.64,2.9-0.95C240.44,171.26,240.8,170.36,240.48,169.64z"/>
	</g>
</g>
<g id="olho">
	<g>
		<path class="st6" d="M236.89,175.5c-0.03,0.94,0.64,1.74,1.51,1.79c0.86,0.05,1.59-0.68,1.62-1.62c0.03-0.94-0.64-1.74-1.51-1.79
			C237.64,173.83,236.92,174.55,236.89,175.5z"/>
	</g>
</g>
<g id="bochecha">
	<g>
		<path class="st7" d="M234.09,181.73c0.14,1.75-1.39,3.22-3.4,3.28c-2.02,0.06-3.76-1.32-3.9-3.08c-0.14-1.75,1.39-3.22,3.4-3.28
			C232.2,178.59,233.95,179.97,234.09,181.73z"/>
	</g>
</g>
<g id="orelha">
	<g>
		<path class="st7" d="M211.17,175.96c-0.54,1.79,0.42,3.71,1.36,5.46c0.28,0.52,0.59,1.07,1.15,1.39c0.56,0.33,1.45,0.3,1.72-0.2
			c0.26-0.48-0.18-1.04-0.52-1.51c-0.34-0.47-0.55-1.18-0.03-1.46c0.24-0.13,0.57-0.11,0.83-0.23c0.56-0.24,0.53-0.93,0.36-1.47
			c-0.24-0.74-0.59-1.46-1.05-2.13c-0.45-0.66-1.15-1.34-2.03-1.34C212.02,174.47,211.39,175.22,211.17,175.96z"/>
	</g>
</g>
<g id="boca">
	<g>
		<g>
			<path class="st5" d="M242.84,186.3c-0.16-0.18-0.67-0.02-1.66,0.2c-1.39,0.31-1.94,0.33-1.94,0.47c0,0.15,0.56,0.14,1.35,0.46
				c1.21,0.5,1.7,1.29,1.97,1.16c0.13-0.06,0.01-0.26,0.13-1.06c0.04-0.24,0.08-0.51,0.08-0.51
				C242.87,186.43,242.9,186.37,242.84,186.3z"/>
		</g>
	</g>
</g>
<g id="joelho">
	<ellipse class="st1" cx="230.5" cy="335.97" rx="11.65" ry="9.71"/>
</g>
<g id="gluteo">
	<path class="st1" d="M241.32,286.24c0.94,6.28-4.42,12-11.95,12.78c-7.54,0.78-14.41-3.68-15.34-9.96
		c-0.94-6.28,4.42-12,11.95-12.78C233.51,275.51,240.38,279.97,241.32,286.24z"/>
</g>
<g id="perna">
	<polygon class="st1" points="242.07,334.78 241.32,286.24 214.02,289.07 218.94,337.17 	"/>
</g>
<g id="ombro">
	<ellipse class="st4" cx="225.33" cy="218.86" rx="9.3" ry="7.75"/>
</g>
<g id="braco">
	<path class="st4" d="M226.99,212.6c14.05,0.78,35.6,0.16,38.68-0.05l2.1,11.83c0,0-30.52,3.71-42.79,2.23L226.99,212.6z"/>
</g>
<g id="cotovelo">
	<path class="st4" d="M260.9,212.75c3.26-0.52,6.33,1.7,6.85,4.96c0.52,3.26-1.7,6.33-4.96,6.85c-3.26,0.52-6.33-1.7-6.85-4.96
		C255.41,216.34,257.63,213.27,260.9,212.75z"/>
</g>
<g id="antebraco">
	<path class="st4" d="M294.44,211.44c-3.88,0.98-11.83,0.6-19.2,0.65c-7.11,0.05-11.17,0.66-11.17,0.66l1.89,11.81
		c0,0,26.5-5.82,30.15-7.19L294.44,211.44z"/>
</g>
<g id="mao">
	<path class="st4" d="M292.34,211.49c2.8,0.12,9.1-3.86,10.39-3.36c1.29,0.5,7.33,6.79,6.77,7.79s-1.96,0.65-1.93,1.34
		c0.03,0.7-0.13,1.41-1.72,1.56c-1.59,0.15-6.08,1.21-8.42,0.13c-2.34-1.08-5.53-1.32-5.53-1.32L292.34,211.49z"/>
</g>
<g id="pulso">
	<path class="st4" d="M291.6,211.47c1.78-0.29,3.46,0.93,3.75,2.71c0.29,1.78-0.93,3.46-2.71,3.75s-3.46-0.93-3.75-2.71
		C288.6,213.43,289.82,211.76,291.6,211.47z"/>
</g>
</svg>
